<svg xmlns="http://www.w3.org/2000/svg" viewBox="0 0 120 120" width="120" height="120" fill="none">
  <defs>
    <linearGradient id="g1" x1="0" x2="1">
      <stop offset="0" stop-color="#ff7b7b" />
      <stop offset="1" stop-color="#ff4a4a" />
    </linearGradient>
  </defs>
  <g transform="translate(10 18)">
    <!-- body -->
    <ellipse cx="50" cy="36" rx="40" ry="28" fill="url(#g1)" />
    <!-- eyes -->
    <circle cx="34" cy="18" r="6" fill="#fff" />
    <circle cx="66" cy="18" r="6" fill="#fff" />
    <circle cx="34" cy="18" r="2.5" fill="#3b3b3b" />
    <circle cx="66" cy="18" r="2.5" fill="#3b3b3b" />
    <!-- claws -->
    <path d="M2 30 C12 12, 22 12, 34 24" stroke="url(#g1)" stroke-width="6" stroke-linecap="round" fill="none" />
    <path d="M96 30 C86 12, 76 12, 64 24" stroke="url(#g1)" stroke-width="6" stroke-linecap="round" fill="none" />
    <!-- legs -->
    <g stroke="#ff6b6b" stroke-width="4" stroke-linecap="round">
      <path d="M18 56 C22 64, 30 64, 36 56" />
      <path d="M30 56 C34 64, 42 64, 48 56" />
      <path d="M64 56 C68 64, 76 64, 82 56" />
      <path d="M76 56 C80 64, 88 64, 94 56" />
    </g>
  </g>
</svg>

